<?xml version="1.0" encoding="UTF-8" standalone="no"?>
<!-- Created with Inkscape (http://www.inkscape.org/) -->

<svg
   width="164.45663mm"
   height="182.00957mm"
   viewBox="0 0 164.45664 182.00957"
   version="1.1"
   id="svg1"
   inkscape:export-filename="..\..\..\GRAPHIC DESIGN\Dark-mode.png"
   inkscape:export-xdpi="96"
   inkscape:export-ydpi="96"
   sodipodi:docname="Dark-mode.svg"
   inkscape:version="1.3.2 (091e20e, 2023-11-25, custom)"
   xmlns:inkscape="http://www.inkscape.org/namespaces/inkscape"
   xmlns:sodipodi="http://sodipodi.sourceforge.net/DTD/sodipodi-0.dtd"
   xmlns="http://www.w3.org/2000/svg"
   xmlns:svg="http://www.w3.org/2000/svg">
  <sodipodi:namedview
     id="namedview1"
     pagecolor="#505050"
     bordercolor="#eeeeee"
     borderopacity="1"
     inkscape:showpageshadow="0"
     inkscape:pageopacity="0"
     inkscape:pagecheckerboard="0"
     inkscape:deskcolor="#505050"
     inkscape:document-units="mm"
     inkscape:zoom="0.91269177"
     inkscape:cx="344.58512"
     inkscape:cy="344.03729"
     inkscape:window-width="1920"
     inkscape:window-height="1051"
     inkscape:window-x="-9"
     inkscape:window-y="-9"
     inkscape:window-maximized="1"
     inkscape:current-layer="layer1" />
  <defs
     id="defs1" />
  <g
     inkscape:label="Layer 1"
     inkscape:groupmode="layer"
     id="layer1"
     transform="translate(-12.344528,-56.437158)">
    <path
       id="circle4"
       style="fill:#000000;stroke-width:1.50877;stroke-linecap:round;stroke-linejoin:round;stroke-opacity:0.5;paint-order:stroke markers fill"
       d="m 103.34931,56.437158 a 91.004753,91.004753 0 0 0 -91.004782,91.004782 91.004753,91.004753 0 0 0 91.004782,91.00478 91.004753,91.004753 0 0 0 73.16504,-37.27163 60.317104,60.317104 0 0 1 -27.13167,6.58358 60.317104,60.317104 0 0 1 -60.317253,-60.31673 60.317104,60.317104 0 0 1 60.317253,-60.31725 60.317104,60.317104 0 0 1 27.41848,6.610966 91.004753,91.004753 0 0 0 -73.45185,-37.298498 z" />
  </g>
</svg>
